# xmcd
#
# Track frame offsets:
#	150
#	13175
#	22891
#	31816
#	44031
#	54786
#	65402
#	77001
#	89803
#	101605
#	113088
#	123626
#	136946
#	148110
#	158831
#
# Disc length: 2372 seconds
#
# Revision: 3
# Processed by: cddbd v1.5.1PL0 Copyright (c) Steve Scherf et al.
# Submitted via: audiograbber 1.83.01
#
DISCID=c809420f
DTITLE=Various Artist - Classic Country 'Hard to Find Hits' [CD2]
DYEAR=2003
DGENRE=Country
TTITLE0=Bobby Helms - Fraulein
TTITLE1=Charlie Rich - Lonely Weekends
TTITLE2=Faron Young - Alone With You
TTITLE3=Bonnie Guitar - Dark Moon
TTITLE4=Jimmie Rodgers - Kisses Sweeter Than Wine
TTITLE5=Floyd Cramer - San Antonio Rose
TTITLE6=Skeeter Davis - My Last Date (With You)
TTITLE7=Jimmy Elledge - Funny How Time Slips Away
TTITLE8=Ernest Ashworth - Talk Back Trembling Lips
TTITLE9=Marvin Rainwater - Gonna Find Me A Bluebird
TTITLE10=Cowboy Copas - Alabam
TTITLE11=Carl and Pearl Butler - Don't Let Me Cross Over
TTITLE12=Freddie Hart - Easy Loving
TTITLE13=The Browns - The Old Lamplighter
TTITLE14=Bobbie Gentry - Ode To Billie Joe
EXTD=Time-Life 19625-2 TCD909
EXTT0=
EXTT1=
EXTT2=
EXTT3=
EXTT4=
EXTT5=
EXTT6=
EXTT7=
EXTT8=
EXTT9=
EXTT10=
EXTT11=
EXTT12=
EXTT13=
EXTT14=
PLAYORDER=
